# xmcd CD database file
#
# Track frame offsets:
#	150
#	30386
#	204982
#	231091
#
# Disc length: 3491 seconds
#
# Revision: 0
# Processed by: cddbd v1.5.2PL0 Copyright (c) Steve Scherf et al.
# Submitted via: CDex 1.70beta2
#
DISCID=260da104
DTITLE=Jeb Bishop - Tiebreaker
DYEAR=2006
DGENRE=Jazz
TTITLE0=Round Two
TTITLE1=Jacket Weather/Double Dog/How Are You Dear/Northstar
TTITLE2=Mastetaker
TTITLE3=Piggly Wiggly
EXTD=YEAR: 2006
EXTT0=
EXTT1=
EXTT2=
EXTT3=
PLAYORDER=
